<svg width="1280" height="720" xmlns="http://www.w3.org/2000/svg" xmlns:xlink="http://www.w3.org/1999/xlink" overflow="hidden"><defs><clipPath id="clip0"><rect x="0" y="0" width="1280" height="720"/></clipPath></defs><g clip-path="url(#clip0)"><rect x="0" y="0" width="1280" height="720" fill="#FFFFFF"/><path d="M579 119.167C579 111.895 584.895 106 592.167 106L687.833 106C695.105 106 701 111.895 701 119.167L701 171.833C701 179.105 695.105 185 687.833 185L592.167 185C584.895 185 579 179.105 579 171.833Z" stroke="#FFFFFF" stroke-width="2" stroke-miterlimit="8" fill="#1D6FA9" fill-rule="evenodd"/><text fill="#FFFFFF" font-family="Calibri,Calibri_MSFontService,sans-serif" font-weight="700" font-size="16" transform="translate(592.92 151)">Business need</text><path d="M717.56 159.627 729.319 164.256 740.835 169.576 752.039 175.46 762.296 181.685 761.95 182.255 751.702 176.035 751.72 176.045 740.533 170.17 740.548 170.178 729.048 164.865 729.065 164.873 717.315 160.248ZM757.999 173.671 762.689 182.313 752.857 182.142C752.673 182.139 752.527 181.987 752.53 181.803 752.533 181.619 752.685 181.472 752.869 181.475L762.129 181.637 761.83 182.129 757.413 173.989C757.325 173.827 757.385 173.625 757.547 173.537 757.709 173.449 757.911 173.509 757.999 173.671Z" fill="#1D6FA9"/><path d="M755 204.167C755 196.895 760.895 191 768.167 191L863.833 191C871.105 191 877 196.895 877 204.167L877 256.833C877 264.105 871.105 270 863.833 270L768.167 270C760.895 270 755 264.105 755 256.833Z" stroke="#FFFFFF" stroke-width="2" stroke-miterlimit="8" fill="#1D6FA9" fill-rule="evenodd"/><text fill="#FFFFFF" font-family="Calibri,Calibri_MSFontService,sans-serif" font-weight="700" font-size="16" transform="translate(788.035 226)">Problem <tspan font-size="16" x="-11.4267" y="20">formulation</tspan></text><path d="M851.691 291.581 857.258 308.156 861.514 325.056 864.456 342.206 866.02 358.937 865.357 358.999 863.793 342.281 863.797 342.306 860.859 325.181 860.864 325.206 856.614 308.331 856.622 308.356 851.059 291.794ZM869.892 350.708 865.75 359.627 860.026 351.631C859.919 351.482 859.953 351.273 860.103 351.166 860.253 351.059 860.461 351.094 860.568 351.243L865.96 358.774 865.386 358.828 869.288 350.428C869.365 350.261 869.563 350.188 869.73 350.266 869.897 350.343 869.97 350.542 869.892 350.708Z" fill="#1D6FA9"/><path d="M799 395.167C799 387.895 804.895 382 812.167 382L906.833 382C914.105 382 920 387.895 920 395.167L920 447.833C920 455.105 914.105 461 906.833 461L812.167 461C804.895 461 799 455.105 799 447.833Z" stroke="#FFFFFF" stroke-width="2" stroke-miterlimit="8" fill="#1D6FA9" fill-rule="evenodd"/><text fill="#FFFFFF" font-family="Calibri,Calibri_MSFontService,sans-serif" font-weight="700" font-size="16" transform="translate(810.019 427)">Data collection</text><path d="M839.977 477.853 833.159 489.737 825.648 501.191 817.448 512.145 809.056 522.086 808.546 521.656 816.933 511.722 816.921 511.738 825.108 500.8 825.096 500.817 832.596 489.38 832.586 489.397 839.398 477.522ZM817.639 519.083 808.374 522.376 810.068 512.69C810.099 512.509 810.272 512.387 810.453 512.419 810.635 512.451 810.756 512.624 810.724 512.805L809.129 521.928 808.689 521.557 817.416 518.454C817.589 518.393 817.78 518.483 817.841 518.657 817.903 518.83 817.812 519.021 817.639 519.083Z" fill="#1D6FA9"/><path d="M677 548.167C677 540.895 682.895 535 690.167 535L784.833 535C792.105 535 798 540.895 798 548.167L798 600.833C798 608.105 792.105 614 784.833 614L690.167 614C682.895 614 677 608.105 677 600.833Z" stroke="#FFFFFF" stroke-width="2" stroke-miterlimit="8" fill="#1D6FA9" fill-rule="evenodd"/><text fill="#FFFFFF" font-family="Calibri,Calibri_MSFontService,sans-serif" font-weight="700" font-size="16" transform="translate(704.536 560)">Algorithm <tspan font-size="16" x="-4.12" y="20">selection &amp; </tspan><tspan font-size="16" x="7.51331" y="39">training</tspan></text><path d="M663.149 596.332 652.016 597.146 640.813 597.396 629.609 597.146 619.072 596.38 619.12 595.715 629.649 596.48 629.633 596.479 640.82 596.729 640.805 596.729 651.993 596.479 651.976 596.48 663.101 595.668ZM626.548 601.557 618.436 596 627.266 591.674C627.432 591.593 627.631 591.661 627.712 591.826 627.793 591.992 627.725 592.191 627.56 592.272L619.242 596.347 619.284 595.773 626.925 601.007C627.077 601.111 627.116 601.318 627.012 601.47 626.908 601.622 626.7 601.661 626.548 601.557Z" fill="#1D6FA9"/><path d="M482 548.167C482 540.895 487.895 535 495.167 535L589.833 535C597.105 535 603 540.895 603 548.167L603 600.833C603 608.105 597.105 614 589.833 614L495.167 614C487.895 614 482 608.105 482 600.833Z" stroke="#FFFFFF" stroke-width="2" stroke-miterlimit="8" fill="#1D6FA9" fill-rule="evenodd"/><text fill="#FFFFFF" font-family="Calibri,Calibri_MSFontService,sans-serif" font-weight="700" font-size="16" transform="translate(519.034 579)">Testing</text><path d="M472.995 522.59 464.177 512.145 455.977 501.191 448.466 489.737 441.977 478.426 442.555 478.094 449.039 489.397 449.029 489.38 456.529 500.817 456.517 500.8 464.704 511.738 464.692 511.722 473.505 522.16ZM441.866 487.519 441.937 477.686 450.461 482.588C450.62 482.68 450.675 482.884 450.584 483.043 450.492 483.203 450.288 483.258 450.129 483.166L442.1 478.549 442.599 478.262 442.532 487.524C442.531 487.708 442.381 487.856 442.197 487.855 442.012 487.853 441.864 487.703 441.866 487.519Z" fill="#1D6FA9"/><path d="M360 395.167C360 387.895 365.895 382 373.167 382L467.833 382C475.105 382 481 387.895 481 395.167L481 447.833C481 455.105 475.105 461 467.833 461L373.167 461C365.895 461 360 455.105 360 447.833Z" stroke="#FFFFFF" stroke-width="2" stroke-miterlimit="8" fill="#1D6FA9" fill-rule="evenodd"/><text fill="#FFFFFF" font-family="Calibri,Calibri_MSFontService,sans-serif" font-weight="700" font-size="16" transform="translate(379.47 427)">Deployment</text><path d="M415.543 359.594 417.169 342.206 420.111 325.056 424.367 308.156 429.724 292.207 430.356 292.419 425.004 308.356 425.011 308.331 420.761 325.206 420.766 325.181 417.829 342.306 417.832 342.281 416.207 359.656ZM422.85 298.16 430.251 291.686 432.243 301.315C432.281 301.495 432.165 301.672 431.984 301.709 431.804 301.746 431.628 301.63 431.59 301.45L429.714 292.381 430.259 292.564 423.289 298.662C423.15 298.783 422.939 298.769 422.818 298.631 422.697 298.492 422.711 298.281 422.85 298.16Z" fill="#1D6FA9"/><path d="M403 204.167C403 196.895 408.895 191 416.167 191L511.833 191C519.105 191 525 196.895 525 204.167L525 256.833C525 264.105 519.105 270 511.833 270L416.167 270C408.895 270 403 264.105 403 256.833Z" stroke="#FFFFFF" stroke-width="2" stroke-miterlimit="8" fill="#1D6FA9" fill-rule="evenodd"/><text fill="#FFFFFF" font-family="Calibri,Calibri_MSFontService,sans-serif" font-weight="700" font-size="16" transform="translate(415.868 236)">Feedback loop</text><path d="M518.765 182.028 529.586 175.46 540.79 169.576 552.307 164.256 563.451 159.869 563.695 160.489 552.56 164.873 552.577 164.865 541.077 170.178 541.093 170.17 529.905 176.045 529.923 176.035 519.111 182.598ZM554.471 158.438 564.189 159.937 558.1 167.658C557.986 167.803 557.777 167.827 557.632 167.714 557.488 167.6 557.463 167.39 557.577 167.245L563.312 159.973 563.523 160.509 554.369 159.096C554.187 159.068 554.063 158.898 554.091 158.716 554.119 158.534 554.289 158.409 554.471 158.438Z" fill="#1D6FA9"/><path d="M597.5 34.1668C597.5 29.3803 601.38 25.5001 606.167 25.5001L644.667 25.5001 644.667 25.5001 715.417 25.5001 871.833 25.5001C876.62 25.5001 880.5 29.3803 880.5 34.1668L880.5 55.8333 880.5 55.8333 880.5 68.8333 880.5 68.8333C880.5 73.6198 876.62 77.5001 871.833 77.5001L715.417 77.5001 633.212 105.3 644.667 77.5001 606.167 77.5001C601.38 77.5001 597.5 73.6198 597.5 68.8333L597.5 68.8333 597.5 55.8333 597.5 55.8333Z" stroke="#000000" stroke-width="1.33333" stroke-miterlimit="8" fill="#FFFFFF" fill-rule="evenodd"/><text fill="#404040" font-family="Calibri,Calibri_MSFontService,sans-serif" font-weight="400" font-size="16" transform="translate(618.958 47)">Whose need is getting addressed? <tspan font-size="16" x="0" y="19">(developers bias)</tspan></text><path d="M914.5 200.334C914.5 194.35 919.35 189.5 925.334 189.5L939 189.5 939 189.5 975.75 189.5 1050.67 189.5C1056.65 189.5 1061.5 194.35 1061.5 200.334L1061.5 200.333 1061.5 200.333 1061.5 216.583 1061.5 243.667C1061.5 249.65 1056.65 254.5 1050.67 254.5L975.75 254.5 939 254.5 939 254.5 925.334 254.5C919.35 254.5 914.5 249.65 914.5 243.667L914.5 216.583 881.574 218.693 914.5 200.333Z" stroke="#000000" stroke-width="1.33333" stroke-miterlimit="8" fill="#FFFFFF" fill-rule="evenodd"/><text fill="#404040" font-family="Arial,Arial_MSFontService,sans-serif" font-weight="400" font-size="16" transform="translate(936.593 208)">•<tspan font-family="Calibri,Calibri_MSFontService,sans-serif" font-size="16" x="18" y="0">Proxies</tspan><tspan font-size="16" x="0" y="19">•</tspan><tspan font-family="Calibri,Calibri_MSFontService,sans-serif" font-size="16" x="18" y="19">Incentives</tspan><tspan font-size="16" x="0" y="38">•</tspan><tspan font-family="Calibri,Calibri_MSFontService,sans-serif" font-size="16" x="18" y="38">misuse</tspan></text><path d="M855.5 573.5C855.5 565.768 861.768 559.5 869.5 559.5L904.667 559.5 904.667 559.5 978.417 559.5 1136.5 559.5C1144.23 559.5 1150.5 565.768 1150.5 573.5L1150.5 573.5 1150.5 573.5 1150.5 594.5 1150.5 629.5C1150.5 637.232 1144.23 643.5 1136.5 643.5L978.417 643.5 904.667 643.5 904.667 643.5 869.5 643.5C861.768 643.5 855.5 637.232 855.5 629.5L855.5 594.5 800.66 575.941 855.5 573.5Z" stroke="#000000" stroke-width="1.33333" stroke-miterlimit="8" fill="#FFFFFF" fill-rule="evenodd"/><text fill="#404040" font-family="Arial,Arial_MSFontService,sans-serif" font-weight="400" font-size="16" transform="translate(877.964 577)">•<tspan font-family="Calibri,Calibri_MSFontService,sans-serif" font-size="16" x="18" y="0">Majority bias</tspan><tspan font-size="16" x="0" y="19">•</tspan><tspan font-family="Calibri,Calibri_MSFontService,sans-serif" font-size="16" x="18" y="19">Simplicity bias</tspan><tspan font-size="16" x="0" y="38">•</tspan><tspan font-family="Calibri,Calibri_MSFontService,sans-serif" font-size="16" x="18" y="38">Unknown implicit/inductive </tspan><tspan font-family="Calibri,Calibri_MSFontService,sans-serif" font-size="16" x="201.62" y="38">biases</tspan><tspan font-size="16" x="0" y="58">•</tspan><tspan font-family="Calibri,Calibri_MSFontService,sans-serif" font-size="16" x="18" y="58">Bias </tspan><tspan font-family="Calibri,Calibri_MSFontService,sans-serif" font-size="16" x="48" y="58">a</tspan><tspan font-family="Calibri,Calibri_MSFontService,sans-serif" font-size="16" x="55.6667" y="58">mplification </tspan></text><path d="M130.5 106.667C130.5 98.2905 137.29 91.5001 145.667 91.5001L243.083 91.5001 243.083 91.5001 291.333 91.5001 308.333 91.5001C316.71 91.5001 323.5 98.2905 323.5 106.667L323.5 144.583 406.098 196.933 323.5 167.333 323.5 167.333C323.5 175.71 316.71 182.5 308.333 182.5L291.333 182.5 243.083 182.5 243.083 182.5 145.667 182.5C137.29 182.5 130.5 175.71 130.5 167.333L130.5 167.333 130.5 144.583 130.5 144.583Z" stroke="#000000" stroke-width="1.33333" stroke-miterlimit="8" fill="#FFFFFF" fill-rule="evenodd"/><path d="M26.5001 344.167C26.5001 333.305 35.3053 324.5 46.1672 324.5L203.25 324.5 203.25 324.5 279 324.5 309.833 324.5C320.695 324.5 329.5 333.305 329.5 344.167L329.5 393.333 363.066 418.34 329.5 422.833 329.5 422.833C329.5 433.695 320.695 442.5 309.833 442.5L279 442.5 203.25 442.5 203.25 442.5 46.1672 442.5C35.3053 442.5 26.5001 433.695 26.5001 422.833L26.5001 422.833 26.5001 393.333 26.5001 393.333Z" stroke="#000000" stroke-width="1.33333" stroke-miterlimit="8" fill="#FFFFFF" fill-rule="evenodd"/><text fill="#404040" font-family="Arial,Arial_MSFontService,sans-serif" font-weight="400" font-size="16" transform="translate(51.4298 360)">•<tspan font-family="Calibri,Calibri_MSFontService,sans-serif" font-size="16" x="18" y="0">How is our model getting deployed?</tspan><tspan font-size="16" x="-0.226669" y="19">•</tspan><tspan font-family="Calibri,Calibri_MSFontService,sans-serif" font-size="16" x="17.7733" y="19">Who are we deploying our model </tspan><tspan font-family="Calibri,Calibri_MSFontService,sans-serif" font-size="16" x="17.7733" y="38">on?</tspan></text><path d="M141.5 562.167C141.5 551.305 150.305 542.5 161.167 542.5L296.083 542.5 296.083 542.5 362.333 542.5 386.833 542.5C397.695 542.5 406.5 551.305 406.5 562.167L406.5 562.167 483.562 595.621 406.5 591.667 406.5 640.833C406.5 651.695 397.695 660.5 386.833 660.5L362.333 660.5 296.083 660.5 296.083 660.5 161.167 660.5C150.305 660.5 141.5 651.695 141.5 640.833L141.5 591.667 141.5 562.167 141.5 562.167Z" stroke="#000000" stroke-width="1.33333" stroke-miterlimit="8" fill="#FFFFFF" fill-rule="evenodd"/><text fill="#404040" font-family="Arial,Arial_MSFontService,sans-serif" font-weight="400" font-size="16" transform="translate(166.045 577)">•<tspan font-family="Calibri,Calibri_MSFontService,sans-serif" font-size="16" x="18" y="0">How are we evaluating the </tspan><tspan font-family="Calibri,Calibri_MSFontService,sans-serif" font-size="16" x="18" y="19">model? </tspan><tspan font-size="16" x="0" y="38">•</tspan><tspan font-family="Calibri,Calibri_MSFontService,sans-serif" font-size="16" x="18" y="38">Who</tspan><tspan font-family="Calibri,Calibri_MSFontService,sans-serif" font-size="16" x="52.6667" y="38">are</tspan><tspan font-family="Calibri,Calibri_MSFontService,sans-serif" font-size="16" x="77.2867" y="38">we</tspan><tspan font-family="Calibri,Calibri_MSFontService,sans-serif" font-size="16" x="100.313" y="38">evaluating the </tspan><tspan font-family="Calibri,Calibri_MSFontService,sans-serif" font-size="16" x="18" y="58">model on? (userbase bias)</tspan><tspan fill="#000000" font-family="Calibri Light,Calibri Light_MSFontService,sans-serif" font-weight="700" font-size="40" x="345.985" y="-215">Discrimination in</tspan><tspan fill="#000000" font-family="Calibri Light,Calibri Light_MSFontService,sans-serif" font-weight="700" font-size="40" x="405.618" y="-181">ML cycle</tspan></text><path d="M963.5 359.834C963.5 346.947 973.947 336.5 986.834 336.5L1000.17 336.5 1000.17 336.5 1055.17 336.5 1160.17 336.5C1173.05 336.5 1183.5 346.947 1183.5 359.834L1183.5 359.833 1183.5 359.833 1183.5 394.833 1183.5 453.166C1183.5 466.053 1173.05 476.5 1160.17 476.5L1055.17 476.5 1000.17 476.5 1000.17 476.5 986.834 476.5C973.947 476.5 963.5 466.053 963.5 453.166L963.5 394.833 918.609 403.788 963.5 359.833Z" stroke="#000000" stroke-width="1.33333" stroke-miterlimit="8" fill="#FFFFFF" fill-rule="evenodd"/><text fill="#404040" font-family="Arial,Arial_MSFontService,sans-serif" font-weight="400" font-size="16" transform="translate(989.446 354)">•<tspan font-family="Calibri,Calibri_MSFontService,sans-serif" font-size="16" x="18" y="0">Feature bias</tspan><tspan font-size="16" x="0" y="19">•</tspan><tspan font-family="Calibri,Calibri_MSFontService,sans-serif" font-size="16" x="18" y="19">Label bias</tspan><tspan font-size="16" x="0" y="38">•</tspan><tspan font-family="Calibri,Calibri_MSFontService,sans-serif" font-size="16" x="18" y="38">Distribution bias</tspan><tspan font-size="16" x="0" y="58">•</tspan><tspan font-family="Calibri,Calibri_MSFontService,sans-serif" font-size="16" x="18" y="58">Sampling bias</tspan><tspan font-size="16" x="0" y="77">•</tspan><tspan font-family="Calibri,Calibri_MSFontService,sans-serif" font-size="16" x="18" y="77">Underrepresentation</tspan><tspan font-size="16" x="0" y="96">•</tspan><tspan font-family="Calibri,Calibri_MSFontService,sans-serif" font-size="16" x="18" y="96">Misrepresentation</tspan><tspan font-size="16" x="0" y="115">•</tspan><tspan font-family="Calibri,Calibri_MSFontService,sans-serif" font-size="16" x="18" y="115">Measurement bias </tspan><tspan fill="#000000" font-family="Calibri,Calibri_MSFontService,sans-serif" font-size="16" x="-751.003" y="-222">Humans </tspan><tspan fill="#000000" font-family="Calibri,Calibri_MSFontService,sans-serif" font-size="16" x="-747.563" y="-204">change</tspan></text><path d="M261.168 161.527C247.452 178.799 222.155 181.821 204.665 168.275 203.999 167.76 203.35 167.224 202.719 166.668L198.24 170.137 201.244 158.884 214.164 157.804 209.704 161.258C223.317 172.018 243.215 169.88 254.148 156.483 254.213 156.402 254.278 156.322 254.343 156.241Z" stroke="#FFFFFF" stroke-width="1.33333" stroke-miterlimit="8" fill="#1D6FA9" fill-rule="evenodd"/><text font-family="Calibri,Calibri_MSFontService,sans-serif" font-weight="400" font-size="16" transform="translate(168.145 132)">Models <tspan font-size="16" x="0.906677" y="18">change</tspan></text><path d="M197.832 112.473C211.548 95.2007 236.845 92.1794 254.335 105.725 255.001 106.241 255.65 106.776 256.281 107.332L260.761 103.863 257.756 115.116 244.836 116.196 249.296 112.742C235.683 101.982 215.785 104.12 204.852 117.518 204.787 117.598 204.722 117.679 204.657 117.759Z" stroke="#FFFFFF" stroke-width="1.33333" stroke-miterlimit="8" fill="#1D6FA9" fill-rule="evenodd"/></g></svg>